<svg width="943" height="127" viewBox="0 0 943 127" fill="none" xmlns="http://www.w3.org/2000/svg">
<path d="M11 0.5L53.7866 1.43014C55.7441 1.4727 57.4966 2.65389 58.2706 4.45235L74 41L112.155 4.64097C114.944 1.98279 118.649 0.5 122.503 0.5H153L129 77.5H97L110.5 36.5L63 80.5L42.5 36.5L30 77.5H0L18.5 15.5L11 0.5Z" fill="#FEFEFE"/>
<path d="M162 0.5L204.787 1.43014C206.744 1.4727 208.497 2.65389 209.271 4.45235L225 41L263.155 4.64097C265.944 1.98279 269.649 0.5 273.503 0.5H304L280 77.5H248L261.5 36.5L214 80.5L193.5 36.5L181 77.5H151L169.5 15.5L162 0.5Z" fill="#FEFEFE"/>
<path d="M593.06 0.5C601.607 0.5 607.828 8.60706 605.617 16.8633L602.5 28.5L599.654 37.0381C595.979 48.0633 585.661 55.5 574.039 55.5H522L515 77.5H485L503.5 16L495 0.5H593.06ZM533 19.5L527.637 36.5H565.292C568.673 36.5 571.689 34.3745 572.826 31.1904L575.092 24.8447C576.022 22.24 574.091 19.5002 571.325 19.5H533Z" fill="#CF071D"/>
<path d="M420.5 77.5H385L382 63.5H338L325 77.5H293L349 12.5L343 0.5H395L420.5 77.5ZM351.144 46H379.5L373 20L351.144 46Z" fill="#FEFEFE"/>
<path d="M712.5 77.5H677L674 63.5H630L617 77.5H585L641 12.5L635 0.5H687L712.5 77.5ZM643.144 46H671.5L665 20L643.144 46Z" fill="#CF071D"/>
<path d="M710 0.5H822L817 20.5H781L763.5 77.5H732L751 20.5H717L710 0.5Z" fill="#CF071D"/>
<path d="M836.5 15L829 0.5H870L861.5 29H903.5L912 0.5H942L917.5 77.5H888.5L896.5 48.5H855.5L846.5 77.5H817.5L836.5 15Z" fill="#CF071D" stroke="#CF071D"/>
<path d="M371 111.5L124 117L382 125.5L371 111.5Z" fill="#FDFDFD" stroke="#FDFDFD"/>
<path d="M561 111.5L808 117L550 125.5L561 111.5Z" fill="#FDFDFD" stroke="#FDFDFD"/>
<path d="M386 112.5H546L535 125.5H397L386 112.5Z" fill="#CF051C"/>
</svg>
