<svg width="1254" height="1254" viewBox="0 0 1254 1254" fill="none" xmlns="http://www.w3.org/2000/svg">
<rect width="1254" height="1254" fill="black"/>
<path d="M268 448L324 519.5V630H268V448Z" fill="#FEFEFE"/>
<path d="M253 399H322L393.5 486L471 396H515V684L460 629V500L393.5 577.5L253 399Z" fill="#FEFEFE"/>
<path d="M783 446L725 519V630H751L783 560V446Z" fill="#FEFEFE"/>
<path d="M798 399H729L657 486.5L582 396H537V684L592 628V503L657.5 577.5L798 399Z" fill="#FEFEFE"/>
<path d="M805 399H897L996 630H851L873 577H913L883 505L830 630H770L847 448L805 399Z" fill="#D30920"/>
<path d="M504 239H751L894 385H828L731 288H523L426 385H361L504 239Z" fill="#D9D9D9"/>
<path d="M504 796H751L894 650H828L731 747H523L426 650H361L504 796Z" fill="#D20920"/>
<path d="M172 852L214.787 852.93C216.744 852.973 218.497 854.154 219.271 855.952L235 892.5L273.155 856.141C275.944 853.483 279.649 852 283.503 852H314L290 929H258L271.5 888L224 932L203.5 888L191 929H161L179.5 867L172 852Z" fill="#FEFEFE"/>
<path d="M323 852L365.787 852.93C367.744 852.973 369.497 854.154 370.271 855.952L386 892.5L424.155 856.141C426.944 853.483 430.649 852 434.503 852H465L441 929H409L422.5 888L375 932L354.5 888L342 929H312L330.5 867L323 852Z" fill="#FEFEFE"/>
<path d="M754.06 852C762.607 852 768.828 860.107 766.617 868.363L763.5 880L760.654 888.538C756.979 899.563 746.661 907 735.039 907H683L676 929H646L664.5 867.5L656 852H754.06ZM694 871L688.637 888H726.292C729.673 888 732.689 885.874 733.826 882.69L736.092 876.345C737.022 873.74 735.091 871 732.325 871H694Z" fill="#CF071D"/>
<path d="M581.5 929H546L543 915H499L486 929H454L510 864L504 852H556L581.5 929ZM512.144 897.5H540.5L534 871.5L512.144 897.5Z" fill="#FEFEFE"/>
<path d="M873.5 929H838L835 915H791L778 929H746L802 864L796 852H848L873.5 929ZM804.144 897.5H832.5L826 871.5L804.144 897.5Z" fill="#CF071D"/>
<path d="M871 852H983L978 872H942L924.5 929H893L912 872H878L871 852Z" fill="#CF071D"/>
<path d="M997.5 866.5L990 852H1031L1022.5 880.5H1064.5L1073 852H1103L1078.5 929H1049.5L1057.5 900H1016.5L1007.5 929H978.5L997.5 866.5Z" fill="#CF071D" stroke="#CF071D"/>
<path d="M532 963L285 968.5L543 977L532 963Z" fill="#FDFDFD" stroke="#FDFDFD"/>
<path d="M722 963L969 968.5L711 977L722 963Z" fill="#FDFDFD" stroke="#FDFDFD"/>
<path d="M547 964H707L696 977H558L547 964Z" fill="#CF051C"/>
</svg>
